<?xml version="1.0" encoding="UTF-8"?>
<!DOCTYPE svg PUBLIC "-//W3C//DTD SVG 1.1//EN" "http://www.w3.org/Graphics/SVG/1.1/DTD/svg11.dtd">
<!-- Creator: CorelDRAW -->
<svg xmlns="http://www.w3.org/2000/svg" xml:space="preserve" width="911.281mm" height="268.901mm" version="1.1" style="shape-rendering:geometricPrecision; text-rendering:geometricPrecision; image-rendering:optimizeQuality; fill-rule:evenodd; clip-rule:evenodd"
viewBox="0 0 120140.17 35450.92"
 xmlns:xlink="http://www.w3.org/1999/xlink"
 xmlns:xodm="http://www.corel.com/coreldraw/odm/2003">
 <defs>
  <style type="text/css">
   <![CDATA[
    .fil0 {fill:#FEFEFE}
    .fil1 {fill:#FEFEFE;fill-rule:nonzero}
   ]]>
  </style>
 </defs>
 <g id="Layer_x0020_1">
  <metadata id="CorelCorpID_0Corel-Layer"/>
  <g id="_2494436055392">
   <path class="fil0" d="M19011.2 30361.61c2015.28,2.83 2980.67,902.18 4239.6,1645.89l2270.7 1631.79c351.85,253.34 810.89,511.01 1235.81,739.23 2488.96,1336.77 6096.06,1565.15 8501.93,-129.03 113.23,-79.73 179.52,-144.51 285.61,-221.01 155.03,-111.78 133.47,-107.09 272.36,-235.79 723.43,-670.34 1213.13,-1321.71 1643.29,-2258.06 1089.58,-2371.71 676.07,-5637.98 -356.12,-7895.07 -532.67,-1164.79 -1356.53,-2483.29 -2296.39,-3355.41 -2084.86,-1934.66 -4625.33,-2901 -8339.5,-2908.8l-10981.27 -7.62 -1890.44 4105.44 668.91 16.57c3897.52,-13.78 7797.14,54.05 11694.32,-9.99 2430.54,-39.93 4550.51,767.99 5915.25,2186.85 1573.94,1636.38 2900.83,5611.91 751.23,6987.92 -755.19,483.42 -2070.19,453.91 -2979.62,154.64 -1929.99,-635.14 -2658.18,-1690.76 -3878.45,-2445.3 -1753.14,-1084.03 -3312.16,-2083.56 -5737.04,-2359.41 -2724.24,-309.92 -4989.06,608.24 -7015.55,1931.48 -97.72,63.82 -198.33,115.67 -283.22,171.37 -1014.5,665.59 -1871.01,1442.34 -2896.9,2073.3 -3171.02,1950.28 -7572.3,870.87 -4200.81,-6066.02 786.52,-1618.29 1530.02,-3277.55 2359.65,-4873.02 2154.01,-4142.45 4244.53,-8271.46 6769.79,-12154.91 323.95,-498.18 757.33,-1162.05 1192.59,-1515.75 1641.1,-1333.65 4008.44,-1571.14 5953.37,-187.55 542.43,385.89 875.5,897.95 1279.37,1432.18 1026.07,1357.28 1839.69,3035.4 2730.39,4501.15 343.92,565.96 1045.65,1753.35 1258.89,2349.47l4998.32 -2.03c-72.98,-249.9 -420.87,-851.9 -558.05,-1096.59 -205.78,-367.01 -403.25,-713.22 -597.81,-1094.32l-1798.42 -3228.66c-829.98,-1406.43 -1644.44,-2827.47 -2552.63,-4175.09 -64.1,-95.12 -103.68,-120.16 -176.19,-213.4l-577.21 -726.72c-320.53,-336.3 -533.67,-541.11 -849.07,-846.42l-940.47 -754.75c-1347.44,-912.97 -3243.27,-1536.19 -5172.71,-1528.09l-56.48 0.25c-1850.91,7.77 -3570.15,637.11 -5023.6,1620.26 -128.96,87.24 -228.67,172.97 -363.22,260.88 -177.9,116.21 -186.92,122.57 -336.29,284.94l-927.8 935.27c-390.66,390.09 -746.72,906.46 -1053.9,1376.36 -332.03,507.93 -613.75,986.27 -937.07,1493.52 -84.36,132.38 -133.63,205.24 -215.83,349.25l-266.47 475.27c-115.83,187.26 47.58,-73.47 -70.47,99.04l-2132.43 3733.86c-776.57,1369.9 -2777.45,5080.19 -3374.4,6400.16l-209.08 410.95c-7.57,15.93 -27.45,63.94 -34.96,80.41l-56.24 122.85c-736.24,1438.9 -1479.29,2860.59 -2132.97,4355.67 -1134.93,2595.66 -2186.19,4875.43 -1591.87,7886.54 218.11,1105.11 623.81,2103.06 1274.78,2967.22 2200.64,2921.48 6269.37,3156.1 9473.04,1746.7 1135.24,-499.45 2059.23,-1193.85 3020.03,-1896.85 1477.57,-1081.11 3005.53,-2343.9 5071.73,-2341.01z"/>
   <path class="fil1" d="M45828.95 30651.22c-1227.28,0 -2148.22,-350.29 -2762.85,-1050.86 -616.53,-698.61 -922.88,-1747.52 -922.88,-3146.7 0,-1326.78 317.91,-2354.15 953.71,-3082.11 635.81,-727.97 1531.72,-1091.95 2685.79,-1091.95 583.79,0 1086.65,93.92 1510.52,277.87 423.87,185.9 753.33,448.14 990.3,788.63l-936.36 1095.86c-173.4,-225.04 -391.12,-403.12 -653.14,-530.33 -260.1,-129.15 -541.4,-191.77 -843.89,-191.77 -676.26,0 -1202.24,230.91 -1576.03,696.65 -375.68,463.79 -562.57,1123.26 -562.57,1980.38 0,935.41 188.8,1637.94 564.51,2105.63 375.69,469.65 938.29,702.53 1687.77,702.53 358.34,0 672.41,-35.23 945.99,-105.67 271.66,-70.45 495.15,-131.11 668.56,-180.04l535.61 1387.43c-165.69,48.92 -456.62,119.38 -870.86,209.4 -416.16,90.02 -888.2,135.03 -1414.18,135.03zm807.29 -344.42l0 -3984.25 1477.76 0 0 3984.25 -1477.76 0zm-1327.49 -2590.93l0 -1393.31 2772.5 0 0 1393.31 -2772.5 0zm8975.75 -160.47l0 -1393.31 1439.22 0c346.8,0 614.62,-105.67 807.27,-313.1 190.74,-207.43 287.09,-499.01 287.09,-874.74 0,-377.69 -96.35,-671.22 -287.09,-876.69 -192.65,-207.43 -460.48,-309.2 -807.27,-309.2l-1418.03 0 -134.86 -1393.31 1552.89 0c861.22,0 1527.85,213.31 1997.97,641.87 470.1,428.56 705.15,1035.19 705.15,1823.83 0,851.26 -235.05,1514.64 -705.15,1986.25 -470.12,471.62 -1136.75,708.4 -1997.97,708.4l-1439.22 0zm-1412.26 2980.36l0 -8140.71 1491.26 0 0 8140.71 -1491.26 0zm4071.07 0l-1512.46 -3829.65 1568.31 0 1722.46 3829.65 -1778.32 0zm5706.18 0l2313.93 -8140.71 1828.4 0 2315.88 8140.71 -1608.77 0 -1570.24 -6152.49 -102.12 0 -1568.31 6152.49 -1608.76 0zm1167.54 -1542.04l0 -1399.18 4065.3 0 0 1399.18 -4065.3 0zm11149.05 -790.58l0 -1393.31 1100.11 0c493.24,0 874.72,-138.94 1144.46,-412.91 267.8,-275.92 402.67,-659.47 402.67,-1152.61 0,-465.74 -134.87,-825.81 -402.67,-1078.25 -269.74,-252.44 -651.22,-377.69 -1144.46,-377.69l-1077 0 0 -1393.31 1077 0c1005.74,0 1782.19,238.74 2331.28,720.14 549.11,479.44 824.62,1156.52 824.62,2031.26 0,970.62 -275.51,1722.08 -824.62,2256.3 -549.09,532.28 -1325.54,800.38 -2331.28,800.38l-1100.11 0zm-1354.46 2332.62l0 -8140.71 1489.32 0 0 8140.71 -1489.32 0zm14094.91 0l0 -8140.71 1489.33 0 0 8140.71 -1489.33 0zm-3895.73 0l0 -8140.71 1491.24 0 0 8140.71 -1491.24 0zm236.99 -3354.13l0 -1399.18 4939.98 0 0 1399.18 -4939.98 0zm12017.94 3354.13l0 -8140.71 1491.24 0 0 8140.71 -1491.24 0zm-1784.09 0l0 -1363.95 5069.08 0 0 1363.95 -5069.08 0zm0 -6782.62l0 -1358.09 5069.08 0 0 1358.09 -5069.08 0zm13682.6 6898.08c-2554.78,0 -3832.16,-1399.19 -3832.16,-4197.56 0,-1326.78 321.75,-2354.15 965.27,-3082.11 643.51,-727.97 1554.83,-1091.95 2732.02,-1091.95 529.82,0 1001.88,88.05 1412.25,262.22 408.46,172.2 720.58,420.73 930.59,741.66l-836.19 1111.53c-169.54,-213.31 -383.41,-379.65 -645.43,-495.1 -262.03,-117.41 -545.25,-174.17 -849.66,-174.17 -647.37,0 -1165.65,230.91 -1554.83,694.7 -389.19,465.75 -583.79,1123.26 -583.79,1976.47 0,1872.76 816.91,2808.16 2454.59,2808.16 545.25,0 1084.71,-113.5 1614.55,-342.46l260.1 1397.23c-655.06,260.27 -1344.81,391.38 -2067.32,391.38zm9201.15 0c-454.69,0 -897.82,-39.14 -1325.54,-117.41 -429.66,-80.24 -813.06,-189.83 -1152.16,-330.73l204.23 -1547.91c412.31,176.12 824.61,311.15 1233.07,407.03 408.46,95.9 784.16,142.86 1130.97,142.86 402.66,0 710.94,-72.4 926.72,-217.21 213.85,-144.81 321.76,-354.21 321.76,-624.26 0,-356.16 -221.56,-639.89 -660.86,-849.29l-1152.16 -567.5c-568.36,-283.75 -1007.64,-632.08 -1319.76,-1048.89 -312.12,-416.83 -470.12,-876.7 -470.12,-1381.57 0,-710.36 233.14,-1262.2 695.54,-1651.63 462.39,-389.42 1117.47,-585.1 1963.27,-585.1 493.23,0 961.42,88.05 1402.62,264.17 443.14,176.12 834.26,430.53 1177.19,763.19l-1026.91 1197.63c-260.1,-252.44 -522.13,-446.17 -784.15,-581.2 -263.95,-136.98 -518.28,-203.52 -762.98,-203.52 -331.37,0 -587.62,70.45 -772.59,213.3 -184.95,144.81 -277.44,352.24 -277.44,622.29 0,180.04 65.51,350.29 194.59,510.75 131.01,160.47 315.97,305.28 556.81,436.39l1082.79 567.5c564.52,297.45 1001.88,645.77 1308.23,1043.02 306.34,397.25 458.54,823.86 458.54,1277.87 0,722.1 -254.31,1279.8 -766.83,1671.19 -512.49,391.38 -1240.77,589.03 -2184.85,589.03z"/>
   <g>
    <path class="fil0" d="M73805.77 18223.34l3146.94 29.97 6.09 -9262.44 1560.98 2919.24c414.11,806 1272.46,2282.57 1502.04,3036.05l2220.3 2.91 2988.58 -6022.21 60.59 9329.33 3155.64 -14.65 2.1 -16117.32 -3087.18 -41.17c-815.65,1481.24 -3804.95,8121.92 -4217.15,8622.98 -722.61,-839.31 -3615.05,-7851.33 -4297.55,-8612.33l-3005.7 -5.46 -35.67 16135.09z"/>
    <path class="fil0" d="M107406.55 18249.02l3158.74 -3.44 164.19 -9616.58 5436.87 8362.52c281.38,411.99 450.6,782.33 832.28,1234.6l2785.69 22.39 3.82 -16142.07 -3110.91 -21.61 -47.38 9773.49 -6417.22 -9771.2 -2753.95 -1.42 -52.14 16163.32z"/>
    <path class="fil0" d="M58563.21 18235.52l3151.35 15 8.17 -13349.37c2050.69,-4.25 4744.64,-420.22 5191.96,1569.53 264.73,1177.46 -272.56,2035.31 -1015.39,2424.83 -798.76,418.84 -2236.59,278.93 -3212.92,262.05l4452.84 9083.39 3624.41 13.95 -3591.48 -7008.26c3929.93,-1057.26 4816.33,-9159.3 -2725.79,-9162.3 -1911.62,-0.74 -3943.96,-63.87 -5840.81,11.87l-42.36 16139.31z"/>
    <polygon class="fil0" points="90892.29,18249.83 94152.83,18250.74 97930.66,7691.99 101679.85,18226.12 104905.44,18246.03 99118.14,2084.9 96696.62,2092.11 "/>
    <path class="fil0" d="M42495.46 18212.31l3163.64 42.46c360.28,-490.8 1647.19,-4469.67 1938.02,-5314.37 166.17,-482.55 1640.3,-4981 2044.57,-5431.28l3631.15 10737.57 3215.59 7.87c-302.29,-1226.11 -967.81,-2797.56 -1411.52,-4021.05 -495.77,-1367.07 -990.96,-2703.12 -1466.34,-4059.3 -472.53,-1348.03 -947.52,-2701.29 -1454.95,-4070.06 -417.64,-1126.6 -989.5,-3075.87 -1489.62,-4019.35l-2370.74 3.63 -5799.81 16123.89z"/>
   </g>
  </g>
 </g>
</svg>
